<?xml version="1.0" encoding="UTF-8" standalone="no"?>
<!DOCTYPE svg PUBLIC "-//W3C//DTD SVG 1.1//EN" "http://www.w3.org/Graphics/SVG/1.1/DTD/svg11.dtd">
<!-- Created with Vectornator (http://vectornator.io/) -->
<svg height="100%" stroke-miterlimit="10" style="fill-rule:nonzero;clip-rule:evenodd;stroke-linecap:round;stroke-linejoin:round;" version="1.1" viewBox="0 0 640 11" width="100%" xml:space="preserve" xmlns="http://www.w3.org/2000/svg" xmlns:vectornator="http://vectornator.io" xmlns:xlink="http://www.w3.org/1999/xlink">
<defs>
<clipPath id="TextBounds">
<rect height="20" width="640" x="0" y="-8.63911"/>
</clipPath>
<g id="Fill">
<path clip-path="url(#TextBounds)" d="M4.48308 5.20208C4.48308 4.84807 4.60903 4.55148 4.86095 4.31231C5.11286 4.07313 5.44145 3.95354 5.84673 3.95354C6.25631 3.95354 6.58598 4.07313 6.83574 4.31231C7.0855 4.55148 7.21037 4.84807 7.21037 5.20208C7.21037 5.55527 7.0855 5.85123 6.83574 6.08995C6.58598 6.32868 6.25631 6.44805 5.84673 6.44805C5.44145 6.44805 5.11286 6.32868 4.86095 6.08995C4.60903 5.85123 4.48308 5.55527 4.48308 5.20208Z"/>
<path clip-path="url(#TextBounds)" d="M13.2079 5.20208C13.2079 4.84807 13.3339 4.55148 13.5858 4.31231C13.8377 4.07313 14.1663 3.95354 14.5715 3.95354C14.9811 3.95354 15.3108 4.07313 15.5606 4.31231C15.8103 4.55148 15.9352 4.84807 15.9352 5.20208C15.9352 5.55527 15.8103 5.85123 15.5606 6.08995C15.3108 6.32868 14.9811 6.44805 14.5715 6.44805C14.1663 6.44805 13.8377 6.32868 13.5858 6.08995C13.3339 5.85123 13.2079 5.55527 13.2079 5.20208Z"/>
<path clip-path="url(#TextBounds)" d="M21.9327 5.20208C21.9327 4.84807 22.0587 4.55148 22.3106 4.31231C22.5625 4.07313 22.8911 3.95354 23.2964 3.95354C23.706 3.95354 24.0356 4.07313 24.2854 4.31231C24.5351 4.55148 24.66 4.84807 24.66 5.20208C24.66 5.55527 24.5351 5.85123 24.2854 6.08995C24.0356 6.32868 23.706 6.44805 23.2964 6.44805C22.8911 6.44805 22.5625 6.32868 22.3106 6.08995C22.0587 5.85123 21.9327 5.55527 21.9327 5.20208Z"/>
<path clip-path="url(#TextBounds)" d="M30.6575 5.20208C30.6575 4.84807 30.7835 4.55148 31.0354 4.31231C31.2873 4.07313 31.6159 3.95354 32.0212 3.95354C32.4308 3.95354 32.7604 4.07313 33.0102 4.31231C33.26 4.55148 33.3848 4.84807 33.3848 5.20208C33.3848 5.55527 33.26 5.85123 33.0102 6.08995C32.7604 6.32868 32.4308 6.44805 32.0212 6.44805C31.6159 6.44805 31.2873 6.32868 31.0354 6.08995C30.7835 5.85123 30.6575 5.55527 30.6575 5.20208Z"/>
<path clip-path="url(#TextBounds)" d="M39.3824 5.20208C39.3824 4.84807 39.5083 4.55148 39.7602 4.31231C40.0121 4.07313 40.3407 3.95354 40.746 3.95354C41.1556 3.95354 41.4853 4.07313 41.735 4.31231C41.9848 4.55148 42.1097 4.84807 42.1097 5.20208C42.1097 5.55527 41.9848 5.85123 41.735 6.08995C41.4853 6.32868 41.1556 6.44805 40.746 6.44805C40.3407 6.44805 40.0121 6.32868 39.7602 6.08995C39.5083 5.85123 39.3824 5.55527 39.3824 5.20208Z"/>
<path clip-path="url(#TextBounds)" d="M48.1072 5.20208C48.1072 4.84807 48.2331 4.55148 48.4851 4.31231C48.737 4.07313 49.0656 3.95354 49.4708 3.95354C49.8804 3.95354 50.2101 4.07313 50.4598 4.31231C50.7096 4.55148 50.8345 4.84807 50.8345 5.20208C50.8345 5.55527 50.7096 5.85123 50.4598 6.08995C50.2101 6.32868 49.8804 6.44805 49.4708 6.44805C49.0656 6.44805 48.737 6.32868 48.4851 6.08995C48.2331 5.85123 48.1072 5.55527 48.1072 5.20208Z"/>
<path clip-path="url(#TextBounds)" d="M56.832 5.20208C56.832 4.84807 56.958 4.55148 57.2099 4.31231C57.4618 4.07313 57.7904 3.95354 58.1957 3.95354C58.6052 3.95354 58.9349 4.07313 59.1847 4.31231C59.4344 4.55148 59.5593 4.84807 59.5593 5.20208C59.5593 5.55527 59.4344 5.85123 59.1847 6.08995C58.9349 6.32868 58.6052 6.44805 58.1957 6.44805C57.7904 6.44805 57.4618 6.32868 57.2099 6.08995C56.958 5.85123 56.832 5.55527 56.832 5.20208Z"/>
<path clip-path="url(#TextBounds)" d="M65.5568 5.20208C65.5568 4.84807 65.6828 4.55148 65.9347 4.31231C66.1866 4.07313 66.5152 3.95354 66.9205 3.95354C67.3301 3.95354 67.6597 4.07313 67.9095 4.31231C68.1592 4.55148 68.2841 4.84807 68.2841 5.20208C68.2841 5.55527 68.1592 5.85123 67.9095 6.08995C67.6597 6.32868 67.3301 6.44805 66.9205 6.44805C66.5152 6.44805 66.1866 6.32868 65.9347 6.08995C65.6828 5.85123 65.5568 5.55527 65.5568 5.20208Z"/>
<path clip-path="url(#TextBounds)" d="M74.2816 5.20208C74.2816 4.84807 74.4076 4.55148 74.6595 4.31231C74.9114 4.07313 75.24 3.95354 75.6453 3.95354C76.0549 3.95354 76.3846 4.07313 76.6343 4.31231C76.8841 4.55148 77.0089 4.84807 77.0089 5.20208C77.0089 5.55527 76.8841 5.85123 76.6343 6.08995C76.3846 6.32868 76.0549 6.44805 75.6453 6.44805C75.24 6.44805 74.9114 6.32868 74.6595 6.08995C74.4076 5.85123 74.2816 5.55527 74.2816 5.20208Z"/>
<path clip-path="url(#TextBounds)" d="M83.0065 5.20208C83.0065 4.84807 83.1324 4.55148 83.3843 4.31231C83.6362 4.07313 83.9648 3.95354 84.3701 3.95354C84.7797 3.95354 85.1094 4.07313 85.3591 4.31231C85.6089 4.55148 85.7338 4.84807 85.7338 5.20208C85.7338 5.55527 85.6089 5.85123 85.3591 6.08995C85.1094 6.32868 84.7797 6.44805 84.3701 6.44805C83.9648 6.44805 83.6362 6.32868 83.3843 6.08995C83.1324 5.85123 83.0065 5.55527 83.0065 5.20208Z"/>
<path clip-path="url(#TextBounds)" d="M91.7313 5.20208C91.7313 4.84807 91.8572 4.55148 92.1092 4.31231C92.3611 4.07313 92.6897 3.95354 93.0949 3.95354C93.5045 3.95354 93.8342 4.07313 94.084 4.31231C94.3337 4.55148 94.4586 4.84807 94.4586 5.20208C94.4586 5.55527 94.3337 5.85123 94.084 6.08995C93.8342 6.32868 93.5045 6.44805 93.0949 6.44805C92.6897 6.44805 92.3611 6.32868 92.1092 6.08995C91.8572 5.85123 91.7313 5.55527 91.7313 5.20208Z"/>
<path clip-path="url(#TextBounds)" d="M100.456 5.20208C100.456 4.84807 100.582 4.55148 100.834 4.31231C101.086 4.07313 101.414 3.95354 101.82 3.95354C102.229 3.95354 102.559 4.07313 102.809 4.31231C103.059 4.55148 103.183 4.84807 103.183 5.20208C103.183 5.55527 103.059 5.85123 102.809 6.08995C102.559 6.32868 102.229 6.44805 101.82 6.44805C101.414 6.44805 101.086 6.32868 100.834 6.08995C100.582 5.85123 100.456 5.55527 100.456 5.20208Z"/>
<path clip-path="url(#TextBounds)" d="M109.181 5.20208C109.181 4.84807 109.307 4.55148 109.559 4.31231C109.811 4.07313 110.139 3.95354 110.545 3.95354C110.954 3.95354 111.284 4.07313 111.534 4.31231C111.783 4.55148 111.908 4.84807 111.908 5.20208C111.908 5.55527 111.783 5.85123 111.534 6.08995C111.284 6.32868 110.954 6.44805 110.545 6.44805C110.139 6.44805 109.811 6.32868 109.559 6.08995C109.307 5.85123 109.181 5.55527 109.181 5.20208Z"/>
<path clip-path="url(#TextBounds)" d="M117.906 5.20208C117.906 4.84807 118.032 4.55148 118.284 4.31231C118.536 4.07313 118.864 3.95354 119.269 3.95354C119.679 3.95354 120.009 4.07313 120.258 4.31231C120.508 4.55148 120.633 4.84807 120.633 5.20208C120.633 5.55527 120.508 5.85123 120.258 6.08995C120.009 6.32868 119.679 6.44805 119.269 6.44805C118.864 6.44805 118.536 6.32868 118.284 6.08995C118.032 5.85123 117.906 5.55527 117.906 5.20208Z"/>
<path clip-path="url(#TextBounds)" d="M126.631 5.20208C126.631 4.84807 126.757 4.55148 127.008 4.31231C127.26 4.07313 127.589 3.95354 127.994 3.95354C128.404 3.95354 128.733 4.07313 128.983 4.31231C129.233 4.55148 129.358 4.84807 129.358 5.20208C129.358 5.55527 129.233 5.85123 128.983 6.08995C128.733 6.32868 128.404 6.44805 127.994 6.44805C127.589 6.44805 127.26 6.32868 127.008 6.08995C126.757 5.85123 126.631 5.55527 126.631 5.20208Z"/>
<path clip-path="url(#TextBounds)" d="M135.355 5.20208C135.355 4.84807 135.481 4.55148 135.733 4.31231C135.985 4.07313 136.314 3.95354 136.719 3.95354C137.129 3.95354 137.458 4.07313 137.708 4.31231C137.958 4.55148 138.083 4.84807 138.083 5.20208C138.083 5.55527 137.958 5.85123 137.708 6.08995C137.458 6.32868 137.129 6.44805 136.719 6.44805C136.314 6.44805 135.985 6.32868 135.733 6.08995C135.481 5.85123 135.355 5.55527 135.355 5.20208Z"/>
<path clip-path="url(#TextBounds)" d="M144.08 5.20208C144.08 4.84807 144.206 4.55148 144.458 4.31231C144.71 4.07313 145.039 3.95354 145.444 3.95354C145.853 3.95354 146.183 4.07313 146.433 4.31231C146.683 4.55148 146.808 4.84807 146.808 5.20208C146.808 5.55527 146.683 5.85123 146.433 6.08995C146.183 6.32868 145.853 6.44805 145.444 6.44805C145.039 6.44805 144.71 6.32868 144.458 6.08995C144.206 5.85123 144.08 5.55527 144.08 5.20208Z"/>
<path clip-path="url(#TextBounds)" d="M152.805 5.20208C152.805 4.84807 152.931 4.55148 153.183 4.31231C153.435 4.07313 153.763 3.95354 154.169 3.95354C154.578 3.95354 154.908 4.07313 155.158 4.31231C155.407 4.55148 155.532 4.84807 155.532 5.20208C155.532 5.55527 155.407 5.85123 155.158 6.08995C154.908 6.32868 154.578 6.44805 154.169 6.44805C153.763 6.44805 153.435 6.32868 153.183 6.08995C152.931 5.85123 152.805 5.55527 152.805 5.20208Z"/>
<path clip-path="url(#TextBounds)" d="M161.53 5.20208C161.53 4.84807 161.656 4.55148 161.908 4.31231C162.16 4.07313 162.488 3.95354 162.894 3.95354C163.303 3.95354 163.633 4.07313 163.883 4.31231C164.132 4.55148 164.257 4.84807 164.257 5.20208C164.257 5.55527 164.132 5.85123 163.883 6.08995C163.633 6.32868 163.303 6.44805 162.894 6.44805C162.488 6.44805 162.16 6.32868 161.908 6.08995C161.656 5.85123 161.53 5.55527 161.53 5.20208Z"/>
<path clip-path="url(#TextBounds)" d="M170.255 5.20208C170.255 4.84807 170.381 4.55148 170.633 4.31231C170.884 4.07313 171.213 3.95354 171.618 3.95354C172.028 3.95354 172.358 4.07313 172.607 4.31231C172.857 4.55148 172.982 4.84807 172.982 5.20208C172.982 5.55527 172.857 5.85123 172.607 6.08995C172.358 6.32868 172.028 6.44805 171.618 6.44805C171.213 6.44805 170.884 6.32868 170.633 6.08995C170.381 5.85123 170.255 5.55527 170.255 5.20208Z"/>
<path clip-path="url(#TextBounds)" d="M178.979 5.20208C178.979 4.84807 179.105 4.55148 179.357 4.31231C179.609 4.07313 179.938 3.95354 180.343 3.95354C180.753 3.95354 181.082 4.07313 181.332 4.31231C181.582 4.55148 181.707 4.84807 181.707 5.20208C181.707 5.55527 181.582 5.85123 181.332 6.08995C181.082 6.32868 180.753 6.44805 180.343 6.44805C179.938 6.44805 179.609 6.32868 179.357 6.08995C179.105 5.85123 178.979 5.55527 178.979 5.20208Z"/>
<path clip-path="url(#TextBounds)" d="M187.704 5.20208C187.704 4.84807 187.83 4.55148 188.082 4.31231C188.334 4.07313 188.663 3.95354 189.068 3.95354C189.478 3.95354 189.807 4.07313 190.057 4.31231C190.307 4.55148 190.432 4.84807 190.432 5.20208C190.432 5.55527 190.307 5.85123 190.057 6.08995C189.807 6.32868 189.478 6.44805 189.068 6.44805C188.663 6.44805 188.334 6.32868 188.082 6.08995C187.83 5.85123 187.704 5.55527 187.704 5.20208Z"/>
<path clip-path="url(#TextBounds)" d="M196.429 5.20208C196.429 4.84807 196.555 4.55148 196.807 4.31231C197.059 4.07313 197.388 3.95354 197.793 3.95354C198.202 3.95354 198.532 4.07313 198.782 4.31231C199.032 4.55148 199.156 4.84807 199.156 5.20208C199.156 5.55527 199.032 5.85123 198.782 6.08995C198.532 6.32868 198.202 6.44805 197.793 6.44805C197.388 6.44805 197.059 6.32868 196.807 6.08995C196.555 5.85123 196.429 5.55527 196.429 5.20208Z"/>
<path clip-path="url(#TextBounds)" d="M205.154 5.20208C205.154 4.84807 205.28 4.55148 205.532 4.31231C205.784 4.07313 206.112 3.95354 206.518 3.95354C206.927 3.95354 207.257 4.07313 207.507 4.31231C207.756 4.55148 207.881 4.84807 207.881 5.20208C207.881 5.55527 207.756 5.85123 207.507 6.08995C207.257 6.32868 206.927 6.44805 206.518 6.44805C206.112 6.44805 205.784 6.32868 205.532 6.08995C205.28 5.85123 205.154 5.55527 205.154 5.20208Z"/>
<path clip-path="url(#TextBounds)" d="M213.879 5.20208C213.879 4.84807 214.005 4.55148 214.257 4.31231C214.509 4.07313 214.837 3.95354 215.242 3.95354C215.652 3.95354 215.982 4.07313 216.231 4.31231C216.481 4.55148 216.606 4.84807 216.606 5.20208C216.606 5.55527 216.481 5.85123 216.231 6.08995C215.982 6.32868 215.652 6.44805 215.242 6.44805C214.837 6.44805 214.509 6.32868 214.257 6.08995C214.005 5.85123 213.879 5.55527 213.879 5.20208Z"/>
<path clip-path="url(#TextBounds)" d="M222.604 5.20208C222.604 4.84807 222.73 4.55148 222.981 4.31231C223.233 4.07313 223.562 3.95354 223.967 3.95354C224.377 3.95354 224.707 4.07313 224.956 4.31231C225.206 4.55148 225.331 4.84807 225.331 5.20208C225.331 5.55527 225.206 5.85123 224.956 6.08995C224.707 6.32868 224.377 6.44805 223.967 6.44805C223.562 6.44805 223.233 6.32868 222.981 6.08995C222.73 5.85123 222.604 5.55527 222.604 5.20208Z"/>
<path clip-path="url(#TextBounds)" d="M231.328 5.20208C231.328 4.84807 231.454 4.55148 231.706 4.31231C231.958 4.07313 232.287 3.95354 232.692 3.95354C233.102 3.95354 233.431 4.07313 233.681 4.31231C233.931 4.55148 234.056 4.84807 234.056 5.20208C234.056 5.55527 233.931 5.85123 233.681 6.08995C233.431 6.32868 233.102 6.44805 232.692 6.44805C232.287 6.44805 231.958 6.32868 231.706 6.08995C231.454 5.85123 231.328 5.55527 231.328 5.20208Z"/>
<path clip-path="url(#TextBounds)" d="M240.053 5.20208C240.053 4.84807 240.179 4.55148 240.431 4.31231C240.683 4.07313 241.012 3.95354 241.417 3.95354C241.826 3.95354 242.156 4.07313 242.406 4.31231C242.656 4.55148 242.781 4.84807 242.781 5.20208C242.781 5.55527 242.656 5.85123 242.406 6.08995C242.156 6.32868 241.826 6.44805 241.417 6.44805C241.012 6.44805 240.683 6.32868 240.431 6.08995C240.179 5.85123 240.053 5.55527 240.053 5.20208Z"/>
<path clip-path="url(#TextBounds)" d="M248.778 5.20208C248.778 4.84807 248.904 4.55148 249.156 4.31231C249.408 4.07313 249.736 3.95354 250.142 3.95354C250.551 3.95354 250.881 4.07313 251.131 4.31231C251.38 4.55148 251.505 4.84807 251.505 5.20208C251.505 5.55527 251.38 5.85123 251.131 6.08995C250.881 6.32868 250.551 6.44805 250.142 6.44805C249.736 6.44805 249.408 6.32868 249.156 6.08995C248.904 5.85123 248.778 5.55527 248.778 5.20208Z"/>
<path clip-path="url(#TextBounds)" d="M257.503 5.20208C257.503 4.84807 257.629 4.55148 257.881 4.31231C258.133 4.07313 258.461 3.95354 258.867 3.95354C259.276 3.95354 259.606 4.07313 259.856 4.31231C260.105 4.55148 260.23 4.84807 260.23 5.20208C260.23 5.55527 260.105 5.85123 259.856 6.08995C259.606 6.32868 259.276 6.44805 258.867 6.44805C258.461 6.44805 258.133 6.32868 257.881 6.08995C257.629 5.85123 257.503 5.55527 257.503 5.20208Z"/>
<path clip-path="url(#TextBounds)" d="M266.228 5.20208C266.228 4.84807 266.354 4.55148 266.606 4.31231C266.857 4.07313 267.186 3.95354 267.591 3.95354C268.001 3.95354 268.331 4.07313 268.58 4.31231C268.83 4.55148 268.955 4.84807 268.955 5.20208C268.955 5.55527 268.83 5.85123 268.58 6.08995C268.331 6.32868 268.001 6.44805 267.591 6.44805C267.186 6.44805 266.857 6.32868 266.606 6.08995C266.354 5.85123 266.228 5.55527 266.228 5.20208Z"/>
<path clip-path="url(#TextBounds)" d="M274.953 5.20208C274.953 4.84807 275.078 4.55148 275.33 4.31231C275.582 4.07313 275.911 3.95354 276.316 3.95354C276.726 3.95354 277.055 4.07313 277.305 4.31231C277.555 4.55148 277.68 4.84807 277.68 5.20208C277.68 5.55527 277.555 5.85123 277.305 6.08995C277.055 6.32868 276.726 6.44805 276.316 6.44805C275.911 6.44805 275.582 6.32868 275.33 6.08995C275.078 5.85123 274.953 5.55527 274.953 5.20208Z"/>
<path clip-path="url(#TextBounds)" d="M283.677 5.20208C283.677 4.84807 283.803 4.55148 284.055 4.31231C284.307 4.07313 284.636 3.95354 285.041 3.95354C285.451 3.95354 285.78 4.07313 286.03 4.31231C286.28 4.55148 286.405 4.84807 286.405 5.20208C286.405 5.55527 286.28 5.85123 286.03 6.08995C285.78 6.32868 285.451 6.44805 285.041 6.44805C284.636 6.44805 284.307 6.32868 284.055 6.08995C283.803 5.85123 283.677 5.55527 283.677 5.20208Z"/>
<path clip-path="url(#TextBounds)" d="M292.402 5.20208C292.402 4.84807 292.528 4.55148 292.78 4.31231C293.032 4.07313 293.361 3.95354 293.766 3.95354C294.175 3.95354 294.505 4.07313 294.755 4.31231C295.005 4.55148 295.129 4.84807 295.129 5.20208C295.129 5.55527 295.005 5.85123 294.755 6.08995C294.505 6.32868 294.175 6.44805 293.766 6.44805C293.361 6.44805 293.032 6.32868 292.78 6.08995C292.528 5.85123 292.402 5.55527 292.402 5.20208Z"/>
<path clip-path="url(#TextBounds)" d="M301.127 5.20208C301.127 4.84807 301.253 4.55148 301.505 4.31231C301.757 4.07313 302.085 3.95354 302.491 3.95354C302.9 3.95354 303.23 4.07313 303.48 4.31231C303.729 4.55148 303.854 4.84807 303.854 5.20208C303.854 5.55527 303.729 5.85123 303.48 6.08995C303.23 6.32868 302.9 6.44805 302.491 6.44805C302.085 6.44805 301.757 6.32868 301.505 6.08995C301.253 5.85123 301.127 5.55527 301.127 5.20208Z"/>
<path clip-path="url(#TextBounds)" d="M309.852 5.20208C309.852 4.84807 309.978 4.55148 310.23 4.31231C310.482 4.07313 310.81 3.95354 311.215 3.95354C311.625 3.95354 311.955 4.07313 312.204 4.31231C312.454 4.55148 312.579 4.84807 312.579 5.20208C312.579 5.55527 312.454 5.85123 312.204 6.08995C311.955 6.32868 311.625 6.44805 311.215 6.44805C310.81 6.44805 310.482 6.32868 310.23 6.08995C309.978 5.85123 309.852 5.55527 309.852 5.20208Z"/>
<path clip-path="url(#TextBounds)" d="M318.577 5.20208C318.577 4.84807 318.703 4.55148 318.955 4.31231C319.206 4.07313 319.535 3.95354 319.94 3.95354C320.35 3.95354 320.68 4.07313 320.929 4.31231C321.179 4.55148 321.304 4.84807 321.304 5.20208C321.304 5.55527 321.179 5.85123 320.929 6.08995C320.68 6.32868 320.35 6.44805 319.94 6.44805C319.535 6.44805 319.206 6.32868 318.955 6.08995C318.703 5.85123 318.577 5.55527 318.577 5.20208Z"/>
<path clip-path="url(#TextBounds)" d="M327.301 5.20208C327.301 4.84807 327.427 4.55148 327.679 4.31231C327.931 4.07313 328.26 3.95354 328.665 3.95354C329.075 3.95354 329.404 4.07313 329.654 4.31231C329.904 4.55148 330.029 4.84807 330.029 5.20208C330.029 5.55527 329.904 5.85123 329.654 6.08995C329.404 6.32868 329.075 6.44805 328.665 6.44805C328.26 6.44805 327.931 6.32868 327.679 6.08995C327.427 5.85123 327.301 5.55527 327.301 5.20208Z"/>
<path clip-path="url(#TextBounds)" d="M336.026 5.20208C336.026 4.84807 336.152 4.55148 336.404 4.31231C336.656 4.07313 336.985 3.95354 337.39 3.95354C337.8 3.95354 338.129 4.07313 338.379 4.31231C338.629 4.55148 338.754 4.84807 338.754 5.20208C338.754 5.55527 338.629 5.85123 338.379 6.08995C338.129 6.32868 337.8 6.44805 337.39 6.44805C336.985 6.44805 336.656 6.32868 336.404 6.08995C336.152 5.85123 336.026 5.55527 336.026 5.20208Z"/>
<path clip-path="url(#TextBounds)" d="M344.751 5.20208C344.751 4.84807 344.877 4.55148 345.129 4.31231C345.381 4.07313 345.709 3.95354 346.115 3.95354C346.524 3.95354 346.854 4.07313 347.104 4.31231C347.354 4.55148 347.478 4.84807 347.478 5.20208C347.478 5.55527 347.354 5.85123 347.104 6.08995C346.854 6.32868 346.524 6.44805 346.115 6.44805C345.709 6.44805 345.381 6.32868 345.129 6.08995C344.877 5.85123 344.751 5.55527 344.751 5.20208Z"/>
<path clip-path="url(#TextBounds)" d="M353.476 5.20208C353.476 4.84807 353.602 4.55148 353.854 4.31231C354.106 4.07313 354.434 3.95354 354.84 3.95354C355.249 3.95354 355.579 4.07313 355.829 4.31231C356.078 4.55148 356.203 4.84807 356.203 5.20208C356.203 5.55527 356.078 5.85123 355.829 6.08995C355.579 6.32868 355.249 6.44805 354.84 6.44805C354.434 6.44805 354.106 6.32868 353.854 6.08995C353.602 5.85123 353.476 5.55527 353.476 5.20208Z"/>
<path clip-path="url(#TextBounds)" d="M362.201 5.20208C362.201 4.84807 362.327 4.55148 362.579 4.31231C362.831 4.07313 363.159 3.95354 363.564 3.95354C363.974 3.95354 364.304 4.07313 364.553 4.31231C364.803 4.55148 364.928 4.84807 364.928 5.20208C364.928 5.55527 364.803 5.85123 364.553 6.08995C364.304 6.32868 363.974 6.44805 363.564 6.44805C363.159 6.44805 362.831 6.32868 362.579 6.08995C362.327 5.85123 362.201 5.55527 362.201 5.20208Z"/>
<path clip-path="url(#TextBounds)" d="M370.926 5.20208C370.926 4.84807 371.052 4.55148 371.303 4.31231C371.555 4.07313 371.884 3.95354 372.289 3.95354C372.699 3.95354 373.028 4.07313 373.278 4.31231C373.528 4.55148 373.653 4.84807 373.653 5.20208C373.653 5.55527 373.528 5.85123 373.278 6.08995C373.028 6.32868 372.699 6.44805 372.289 6.44805C371.884 6.44805 371.555 6.32868 371.303 6.08995C371.052 5.85123 370.926 5.55527 370.926 5.20208Z"/>
<path clip-path="url(#TextBounds)" d="M379.65 5.20208C379.65 4.84807 379.776 4.55148 380.028 4.31231C380.28 4.07313 380.609 3.95354 381.014 3.95354C381.424 3.95354 381.753 4.07313 382.003 4.31231C382.253 4.55148 382.378 4.84807 382.378 5.20208C382.378 5.55527 382.253 5.85123 382.003 6.08995C381.753 6.32868 381.424 6.44805 381.014 6.44805C380.609 6.44805 380.28 6.32868 380.028 6.08995C379.776 5.85123 379.65 5.55527 379.65 5.20208Z"/>
<path clip-path="url(#TextBounds)" d="M388.375 5.20208C388.375 4.84807 388.501 4.55148 388.753 4.31231C389.005 4.07313 389.334 3.95354 389.739 3.95354C390.148 3.95354 390.478 4.07313 390.728 4.31231C390.978 4.55148 391.103 4.84807 391.103 5.20208C391.103 5.55527 390.978 5.85123 390.728 6.08995C390.478 6.32868 390.148 6.44805 389.739 6.44805C389.334 6.44805 389.005 6.32868 388.753 6.08995C388.501 5.85123 388.375 5.55527 388.375 5.20208Z"/>
<path clip-path="url(#TextBounds)" d="M397.1 5.20208C397.1 4.84807 397.226 4.55148 397.478 4.31231C397.73 4.07313 398.058 3.95354 398.464 3.95354C398.873 3.95354 399.203 4.07313 399.453 4.31231C399.702 4.55148 399.827 4.84807 399.827 5.20208C399.827 5.55527 399.702 5.85123 399.453 6.08995C399.203 6.32868 398.873 6.44805 398.464 6.44805C398.058 6.44805 397.73 6.32868 397.478 6.08995C397.226 5.85123 397.1 5.55527 397.1 5.20208Z"/>
<path clip-path="url(#TextBounds)" d="M405.825 5.20208C405.825 4.84807 405.951 4.55148 406.203 4.31231C406.455 4.07313 406.783 3.95354 407.188 3.95354C407.598 3.95354 407.928 4.07313 408.178 4.31231C408.427 4.55148 408.552 4.84807 408.552 5.20208C408.552 5.55527 408.427 5.85123 408.178 6.08995C407.928 6.32868 407.598 6.44805 407.188 6.44805C406.783 6.44805 406.455 6.32868 406.203 6.08995C405.951 5.85123 405.825 5.55527 405.825 5.20208Z"/>
<path clip-path="url(#TextBounds)" d="M414.55 5.20208C414.55 4.84807 414.676 4.55148 414.928 4.31231C415.179 4.07313 415.508 3.95354 415.913 3.95354C416.323 3.95354 416.653 4.07313 416.902 4.31231C417.152 4.55148 417.277 4.84807 417.277 5.20208C417.277 5.55527 417.152 5.85123 416.902 6.08995C416.653 6.32868 416.323 6.44805 415.913 6.44805C415.508 6.44805 415.179 6.32868 414.928 6.08995C414.676 5.85123 414.55 5.55527 414.55 5.20208Z"/>
<path clip-path="url(#TextBounds)" d="M423.274 5.20208C423.274 4.84807 423.4 4.55148 423.652 4.31231C423.904 4.07313 424.233 3.95354 424.638 3.95354C425.048 3.95354 425.377 4.07313 425.627 4.31231C425.877 4.55148 426.002 4.84807 426.002 5.20208C426.002 5.55527 425.877 5.85123 425.627 6.08995C425.377 6.32868 425.048 6.44805 424.638 6.44805C424.233 6.44805 423.904 6.32868 423.652 6.08995C423.4 5.85123 423.274 5.55527 423.274 5.20208Z"/>
<path clip-path="url(#TextBounds)" d="M431.999 5.20208C431.999 4.84807 432.125 4.55148 432.377 4.31231C432.629 4.07313 432.958 3.95354 433.363 3.95354C433.773 3.95354 434.102 4.07313 434.352 4.31231C434.602 4.55148 434.727 4.84807 434.727 5.20208C434.727 5.55527 434.602 5.85123 434.352 6.08995C434.102 6.32868 433.773 6.44805 433.363 6.44805C432.958 6.44805 432.629 6.32868 432.377 6.08995C432.125 5.85123 431.999 5.55527 431.999 5.20208Z"/>
<path clip-path="url(#TextBounds)" d="M440.724 5.20208C440.724 4.84807 440.85 4.55148 441.102 4.31231C441.354 4.07313 441.683 3.95354 442.088 3.95354C442.497 3.95354 442.827 4.07313 443.077 4.31231C443.327 4.55148 443.451 4.84807 443.451 5.20208C443.451 5.55527 443.327 5.85123 443.077 6.08995C442.827 6.32868 442.497 6.44805 442.088 6.44805C441.683 6.44805 441.354 6.32868 441.102 6.08995C440.85 5.85123 440.724 5.55527 440.724 5.20208Z"/>
<path clip-path="url(#TextBounds)" d="M449.449 5.20208C449.449 4.84807 449.575 4.55148 449.827 4.31231C450.079 4.07313 450.407 3.95354 450.813 3.95354C451.222 3.95354 451.552 4.07313 451.802 4.31231C452.051 4.55148 452.176 4.84807 452.176 5.20208C452.176 5.55527 452.051 5.85123 451.802 6.08995C451.552 6.32868 451.222 6.44805 450.813 6.44805C450.407 6.44805 450.079 6.32868 449.827 6.08995C449.575 5.85123 449.449 5.55527 449.449 5.20208Z"/>
<path clip-path="url(#TextBounds)" d="M458.174 5.20208C458.174 4.84807 458.3 4.55148 458.552 4.31231C458.804 4.07313 459.132 3.95354 459.537 3.95354C459.947 3.95354 460.277 4.07313 460.526 4.31231C460.776 4.55148 460.901 4.84807 460.901 5.20208C460.901 5.55527 460.776 5.85123 460.526 6.08995C460.277 6.32868 459.947 6.44805 459.537 6.44805C459.132 6.44805 458.804 6.32868 458.552 6.08995C458.3 5.85123 458.174 5.55527 458.174 5.20208Z"/>
<path clip-path="url(#TextBounds)" d="M466.899 5.20208C466.899 4.84807 467.025 4.55148 467.276 4.31231C467.528 4.07313 467.857 3.95354 468.262 3.95354C468.672 3.95354 469.002 4.07313 469.251 4.31231C469.501 4.55148 469.626 4.84807 469.626 5.20208C469.626 5.55527 469.501 5.85123 469.251 6.08995C469.002 6.32868 468.672 6.44805 468.262 6.44805C467.857 6.44805 467.528 6.32868 467.276 6.08995C467.025 5.85123 466.899 5.55527 466.899 5.20208Z"/>
<path clip-path="url(#TextBounds)" d="M475.623 5.20208C475.623 4.84807 475.749 4.55148 476.001 4.31231C476.253 4.07313 476.582 3.95354 476.987 3.95354C477.397 3.95354 477.726 4.07313 477.976 4.31231C478.226 4.55148 478.351 4.84807 478.351 5.20208C478.351 5.55527 478.226 5.85123 477.976 6.08995C477.726 6.32868 477.397 6.44805 476.987 6.44805C476.582 6.44805 476.253 6.32868 476.001 6.08995C475.749 5.85123 475.623 5.55527 475.623 5.20208Z"/>
<path clip-path="url(#TextBounds)" d="M484.348 5.20208C484.348 4.84807 484.474 4.55148 484.726 4.31231C484.978 4.07313 485.307 3.95354 485.712 3.95354C486.121 3.95354 486.451 4.07313 486.701 4.31231C486.951 4.55148 487.076 4.84807 487.076 5.20208C487.076 5.55527 486.951 5.85123 486.701 6.08995C486.451 6.32868 486.121 6.44805 485.712 6.44805C485.307 6.44805 484.978 6.32868 484.726 6.08995C484.474 5.85123 484.348 5.55527 484.348 5.20208Z"/>
<path clip-path="url(#TextBounds)" d="M493.073 5.20208C493.073 4.84807 493.199 4.55148 493.451 4.31231C493.703 4.07313 494.031 3.95354 494.437 3.95354C494.846 3.95354 495.176 4.07313 495.426 4.31231C495.675 4.55148 495.8 4.84807 495.8 5.20208C495.8 5.55527 495.675 5.85123 495.426 6.08995C495.176 6.32868 494.846 6.44805 494.437 6.44805C494.031 6.44805 493.703 6.32868 493.451 6.08995C493.199 5.85123 493.073 5.55527 493.073 5.20208Z"/>
<path clip-path="url(#TextBounds)" d="M501.798 5.20208C501.798 4.84807 501.924 4.55148 502.176 4.31231C502.428 4.07313 502.756 3.95354 503.162 3.95354C503.571 3.95354 503.901 4.07313 504.151 4.31231C504.4 4.55148 504.525 4.84807 504.525 5.20208C504.525 5.55527 504.4 5.85123 504.151 6.08995C503.901 6.32868 503.571 6.44805 503.162 6.44805C502.756 6.44805 502.428 6.32868 502.176 6.08995C501.924 5.85123 501.798 5.55527 501.798 5.20208Z"/>
<path clip-path="url(#TextBounds)" d="M510.523 5.20208C510.523 4.84807 510.649 4.55148 510.901 4.31231C511.152 4.07313 511.481 3.95354 511.886 3.95354C512.296 3.95354 512.626 4.07313 512.875 4.31231C513.125 4.55148 513.25 4.84807 513.25 5.20208C513.25 5.55527 513.125 5.85123 512.875 6.08995C512.626 6.32868 512.296 6.44805 511.886 6.44805C511.481 6.44805 511.152 6.32868 510.901 6.08995C510.649 5.85123 510.523 5.55527 510.523 5.20208Z"/>
<path clip-path="url(#TextBounds)" d="M519.248 5.20208C519.248 4.84807 519.373 4.55148 519.625 4.31231C519.877 4.07313 520.206 3.95354 520.611 3.95354C521.021 3.95354 521.35 4.07313 521.6 4.31231C521.85 4.55148 521.975 4.84807 521.975 5.20208C521.975 5.55527 521.85 5.85123 521.6 6.08995C521.35 6.32868 521.021 6.44805 520.611 6.44805C520.206 6.44805 519.877 6.32868 519.625 6.08995C519.373 5.85123 519.248 5.55527 519.248 5.20208Z"/>
<path clip-path="url(#TextBounds)" d="M527.972 5.20208C527.972 4.84807 528.098 4.55148 528.35 4.31231C528.602 4.07313 528.931 3.95354 529.336 3.95354C529.746 3.95354 530.075 4.07313 530.325 4.31231C530.575 4.55148 530.7 4.84807 530.7 5.20208C530.7 5.55527 530.575 5.85123 530.325 6.08995C530.075 6.32868 529.746 6.44805 529.336 6.44805C528.931 6.44805 528.602 6.32868 528.35 6.08995C528.098 5.85123 527.972 5.55527 527.972 5.20208Z"/>
<path clip-path="url(#TextBounds)" d="M536.697 5.20208C536.697 4.84807 536.823 4.55148 537.075 4.31231C537.327 4.07313 537.656 3.95354 538.061 3.95354C538.47 3.95354 538.8 4.07313 539.05 4.31231C539.3 4.55148 539.424 4.84807 539.424 5.20208C539.424 5.55527 539.3 5.85123 539.05 6.08995C538.8 6.32868 538.47 6.44805 538.061 6.44805C537.656 6.44805 537.327 6.32868 537.075 6.08995C536.823 5.85123 536.697 5.55527 536.697 5.20208Z"/>
<path clip-path="url(#TextBounds)" d="M545.422 5.20208C545.422 4.84807 545.548 4.55148 545.8 4.31231C546.052 4.07313 546.38 3.95354 546.786 3.95354C547.195 3.95354 547.525 4.07313 547.775 4.31231C548.024 4.55148 548.149 4.84807 548.149 5.20208C548.149 5.55527 548.024 5.85123 547.775 6.08995C547.525 6.32868 547.195 6.44805 546.786 6.44805C546.38 6.44805 546.052 6.32868 545.8 6.08995C545.548 5.85123 545.422 5.55527 545.422 5.20208Z"/>
<path clip-path="url(#TextBounds)" d="M554.147 5.20208C554.147 4.84807 554.273 4.55148 554.525 4.31231C554.777 4.07313 555.105 3.95354 555.51 3.95354C555.92 3.95354 556.25 4.07313 556.499 4.31231C556.749 4.55148 556.874 4.84807 556.874 5.20208C556.874 5.55527 556.749 5.85123 556.499 6.08995C556.25 6.32868 555.92 6.44805 555.51 6.44805C555.105 6.44805 554.777 6.32868 554.525 6.08995C554.273 5.85123 554.147 5.55527 554.147 5.20208Z"/>
<path clip-path="url(#TextBounds)" d="M562.872 5.20208C562.872 4.84807 562.998 4.55148 563.249 4.31231C563.501 4.07313 563.83 3.95354 564.235 3.95354C564.645 3.95354 564.975 4.07313 565.224 4.31231C565.474 4.55148 565.599 4.84807 565.599 5.20208C565.599 5.55527 565.474 5.85123 565.224 6.08995C564.975 6.32868 564.645 6.44805 564.235 6.44805C563.83 6.44805 563.501 6.32868 563.249 6.08995C562.998 5.85123 562.872 5.55527 562.872 5.20208Z"/>
<path clip-path="url(#TextBounds)" d="M571.596 5.20208C571.596 4.84807 571.722 4.55148 571.974 4.31231C572.226 4.07313 572.555 3.95354 572.96 3.95354C573.37 3.95354 573.699 4.07313 573.949 4.31231C574.199 4.55148 574.324 4.84807 574.324 5.20208C574.324 5.55527 574.199 5.85123 573.949 6.08995C573.699 6.32868 573.37 6.44805 572.96 6.44805C572.555 6.44805 572.226 6.32868 571.974 6.08995C571.722 5.85123 571.596 5.55527 571.596 5.20208Z"/>
<path clip-path="url(#TextBounds)" d="M580.321 5.20208C580.321 4.84807 580.447 4.55148 580.699 4.31231C580.951 4.07313 581.28 3.95354 581.685 3.95354C582.095 3.95354 582.424 4.07313 582.674 4.31231C582.924 4.55148 583.049 4.84807 583.049 5.20208C583.049 5.55527 582.924 5.85123 582.674 6.08995C582.424 6.32868 582.095 6.44805 581.685 6.44805C581.28 6.44805 580.951 6.32868 580.699 6.08995C580.447 5.85123 580.321 5.55527 580.321 5.20208Z"/>
<path clip-path="url(#TextBounds)" d="M589.046 5.20208C589.046 4.84807 589.172 4.55148 589.424 4.31231C589.676 4.07313 590.004 3.95354 590.41 3.95354C590.819 3.95354 591.149 4.07313 591.399 4.31231C591.649 4.55148 591.773 4.84807 591.773 5.20208C591.773 5.55527 591.649 5.85123 591.399 6.08995C591.149 6.32868 590.819 6.44805 590.41 6.44805C590.004 6.44805 589.676 6.32868 589.424 6.08995C589.172 5.85123 589.046 5.55527 589.046 5.20208Z"/>
<path clip-path="url(#TextBounds)" d="M597.771 5.20208C597.771 4.84807 597.897 4.55148 598.149 4.31231C598.401 4.07313 598.729 3.95354 599.135 3.95354C599.544 3.95354 599.874 4.07313 600.124 4.31231C600.373 4.55148 600.498 4.84807 600.498 5.20208C600.498 5.55527 600.373 5.85123 600.124 6.08995C599.874 6.32868 599.544 6.44805 599.135 6.44805C598.729 6.44805 598.401 6.32868 598.149 6.08995C597.897 5.85123 597.771 5.55527 597.771 5.20208Z"/>
<path clip-path="url(#TextBounds)" d="M606.496 5.20208C606.496 4.84807 606.622 4.55148 606.874 4.31231C607.126 4.07313 607.454 3.95354 607.859 3.95354C608.269 3.95354 608.599 4.07313 608.848 4.31231C609.098 4.55148 609.223 4.84807 609.223 5.20208C609.223 5.55527 609.098 5.85123 608.848 6.08995C608.599 6.32868 608.269 6.44805 607.859 6.44805C607.454 6.44805 607.126 6.32868 606.874 6.08995C606.622 5.85123 606.496 5.55527 606.496 5.20208Z"/>
<path clip-path="url(#TextBounds)" d="M615.221 5.20208C615.221 4.84807 615.347 4.55148 615.598 4.31231C615.85 4.07313 616.179 3.95354 616.584 3.95354C616.994 3.95354 617.323 4.07313 617.573 4.31231C617.823 4.55148 617.948 4.84807 617.948 5.20208C617.948 5.55527 617.823 5.85123 617.573 6.08995C617.323 6.32868 616.994 6.44805 616.584 6.44805C616.179 6.44805 615.85 6.32868 615.598 6.08995C615.347 5.85123 615.221 5.55527 615.221 5.20208Z"/>
<path clip-path="url(#TextBounds)" d="M623.945 5.20208C623.945 4.84807 624.071 4.55148 624.323 4.31231C624.575 4.07313 624.904 3.95354 625.309 3.95354C625.719 3.95354 626.048 4.07313 626.298 4.31231C626.548 4.55148 626.673 4.84807 626.673 5.20208C626.673 5.55527 626.548 5.85123 626.298 6.08995C626.048 6.32868 625.719 6.44805 625.309 6.44805C624.904 6.44805 624.575 6.32868 624.323 6.08995C624.071 5.85123 623.945 5.55527 623.945 5.20208Z"/>
<path clip-path="url(#TextBounds)" d="M632.67 5.20208C632.67 4.84807 632.796 4.55148 633.048 4.31231C633.3 4.07313 633.629 3.95354 634.034 3.95354C634.443 3.95354 634.773 4.07313 635.023 4.31231C635.273 4.55148 635.397 4.84807 635.397 5.20208C635.397 5.55527 635.273 5.85123 635.023 6.08995C634.773 6.32868 634.443 6.44805 634.034 6.44805C633.629 6.44805 633.3 6.32868 633.048 6.08995C632.796 5.85123 632.67 5.55527 632.67 5.20208Z"/>
</g>
</defs>
<g id="Layer-1" vectornator:layerName="Layer 1">
<g opacity="1">
<use fill="#e6007f" stroke="none" xlink:href="#Fill"/>
<mask height="1264.32" id="StrokeMask" maskUnits="userSpaceOnUse" width="1892.74" x="-626.431" y="-626.961">
<rect fill="#000000" height="1264.32" stroke="none" width="1892.74" x="-626.431" y="-626.961"/>
<use fill="#ffffff" fill-rule="evenodd" stroke="none" xlink:href="#Fill"/>
</mask>
<use fill="none" mask="url(#StrokeMask)" stroke="#e6007f" stroke-linecap="butt" stroke-linejoin="miter" stroke-width="4" xlink:href="#Fill"/>
</g>
</g>
</svg>
