<?xml version="1.0" encoding="UTF-8" standalone="no"?>
<!DOCTYPE svg PUBLIC "-//W3C//DTD SVG 1.1//EN" "http://www.w3.org/Graphics/SVG/1.1/DTD/svg11.dtd">
<!-- Created with Vectornator (http://vectornator.io/) -->
<svg height="100%" stroke-miterlimit="10" style="fill-rule:nonzero;clip-rule:evenodd;stroke-linecap:round;stroke-linejoin:round;" version="1.1" viewBox="0 0 100 40" width="100%" xml:space="preserve" xmlns="http://www.w3.org/2000/svg" xmlns:vectornator="http://vectornator.io" xmlns:xlink="http://www.w3.org/1999/xlink">
<defs>
<clipPath id="TextBounds">
<rect height="25.6" width="97.592" x="1.204" y="0.00112446"/>
</clipPath>
<clipPath id="TextBounds_2">
<rect height="25.6" width="90.267" x="1.204" y="14.3989"/>
</clipPath>
</defs>
<g id="Layer-1" vectornator:layerName="Layer 1">
<g fill="#e6007f" opacity="1" stroke="none">
<path clip-path="url(#TextBounds)" d="M9.008 17.1131C12.208 17.1131 14.784 14.7131 14.784 11.3211C14.784 7.92912 12.224 5.54512 9.008 5.54512C5.808 5.54512 3.216 7.92912 3.216 11.3211C3.216 14.7131 5.808 17.1131 9.008 17.1131ZM9.008 14.2011C7.376 14.2011 6.416 13.0651 6.416 11.3211C6.416 9.54512 7.376 8.42512 9.008 8.42512C10.624 8.42512 11.6 9.54512 11.6 11.3211C11.6 13.0651 10.624 14.2011 9.008 14.2011Z"/>
<path clip-path="url(#TextBounds)" d="M22.304 12.1851L22.304 17.0011L25.44 17.0011L25.44 11.7691C25.44 9.41712 24.144 7.94512 22.064 7.94512C20.8 7.94512 19.856 8.53712 19.328 9.30512L19.328 8.02512L16.192 8.02512L16.192 17.0011L19.328 17.0011L19.328 12.1851C19.328 11.1451 19.904 10.5371 20.832 10.5371C21.728 10.5371 22.304 11.1451 22.304 12.1851Z"/>
<path clip-path="url(#TextBounds)" d="M26.784 11.3371C26.784 14.7131 29.008 17.0811 32.4 17.0811C35.232 17.0811 37.248 15.4491 37.808 12.8891L34.432 12.8891C34.032 13.7371 33.28 14.2011 32.352 14.2011C30.912 14.2011 29.968 13.0811 29.968 11.3371C29.968 9.60912 30.912 8.48912 32.352 8.48912C33.28 8.48912 34.032 8.95312 34.432 9.80112L37.808 9.80112C37.248 7.24112 35.232 5.60912 32.4 5.60912C29.008 5.60912 26.784 7.97712 26.784 11.3371Z"/>
<path clip-path="url(#TextBounds)" d="M38.784 12.5051C38.784 15.3691 40.48 17.1131 42.608 17.1131C43.872 17.1131 44.784 16.5531 45.248 15.7531L45.248 17.0011L48.384 17.0011L48.384 8.02512L45.248 8.02512L45.248 9.27312C44.784 8.47312 43.888 7.91312 42.608 7.91312C40.48 7.91312 38.784 9.64112 38.784 12.5051ZM45.248 12.5051C45.248 13.7211 44.496 14.3771 43.616 14.3771C42.72 14.3771 41.984 13.7051 41.984 12.5051C41.984 11.2891 42.72 10.6491 43.616 10.6491C44.496 10.6491 45.248 11.3051 45.248 12.5051Z"/>
<path clip-path="url(#TextBounds)" d="M62.4 12.1851L62.4 17.0011L65.536 17.0011L65.536 11.7691C65.536 9.41712 64.176 7.94512 61.904 7.94512C60.576 7.94512 59.52 8.68112 58.912 9.59312C58.32 8.55312 57.264 7.94512 55.92 7.94512C54.704 7.94512 53.824 8.48912 53.312 9.20912L53.312 8.02512L50.176 8.02512L50.176 17.0011L53.312 17.0011L53.312 12.1851C53.312 11.2091 53.888 10.6651 54.816 10.6651C55.712 10.6651 56.288 11.2091 56.288 12.1851L56.288 17.0011L59.424 17.0011L59.424 12.1851C59.424 11.2091 60 10.6651 60.912 10.6651C61.808 10.6651 62.4 11.2091 62.4 12.1851Z"/>
<path clip-path="url(#TextBounds)" d="M70.384 9.27312L70.384 8.02512L67.248 8.02512L67.248 21.2891L70.384 21.2891L70.384 15.7531C70.864 16.5371 71.744 17.1131 73.008 17.1131C75.152 17.1131 76.832 15.3691 76.832 12.5051C76.832 9.64112 75.152 7.91312 73.008 7.91312C71.76 7.91312 70.848 8.47312 70.384 9.27312ZM73.648 12.5051C73.648 13.7051 72.896 14.3771 72.016 14.3771C71.136 14.3771 70.384 13.7211 70.384 12.5051C70.384 11.3051 71.136 10.6491 72.016 10.6491C72.896 10.6491 73.648 11.2891 73.648 12.5051Z"/>
<path clip-path="url(#TextBounds)" d="M87.312 17.0011L87.312 8.02512L84.16 8.02512L84.16 12.8411C84.16 13.8811 83.584 14.4891 82.672 14.4891C81.776 14.4891 81.184 13.8811 81.184 12.8411L81.184 8.02512L78.064 8.02512L78.064 13.2411C78.064 15.6091 79.36 17.0811 81.44 17.0811C82.704 17.0811 83.648 16.4891 84.16 15.7211L84.16 17.0011L87.312 17.0011Z"/>
<path clip-path="url(#TextBounds)" d="M92.928 17.1131C95.248 17.1131 96.656 15.9291 96.656 14.3611C96.64 10.9531 91.856 11.9771 91.856 10.6971C91.856 10.3611 92.128 10.1531 92.64 10.1531C93.312 10.1531 93.712 10.4891 93.808 11.0491L96.64 11.0491C96.432 9.27312 95.152 7.91312 92.704 7.91312C90.272 7.91312 88.976 9.20912 88.976 10.7771C88.976 14.0731 93.744 13.0011 93.744 14.3131C93.744 14.6331 93.44 14.8891 92.912 14.8891C92.256 14.8891 91.76 14.5691 91.68 13.9771L88.64 13.9771C88.768 15.7691 90.432 17.1131 92.928 17.1131Z"/>
</g>
<g fill="#ffffff" opacity="1" stroke="none">
<path clip-path="url(#TextBounds_2)" d="M7.984 25.0949L6.736 25.0949L6.736 22.6469L7.984 22.6469C8.928 22.6469 9.312 23.1269 9.312 23.8789C9.312 24.6149 8.928 25.0949 7.984 25.0949ZM12.512 23.8789C12.512 21.7029 11.088 20.1189 8.288 20.1189L3.6 20.1189L3.6 31.3989L6.736 31.3989L6.736 27.5909L8.288 27.5909C11.152 27.5909 12.512 25.8469 12.512 23.8789Z"/>
<path clip-path="url(#TextBounds_2)" d="M16.912 27.4789C16.912 26.1029 17.632 25.6869 18.928 25.6869L19.808 25.6869L19.808 22.3429C18.608 22.3429 17.584 23.0309 16.912 24.0069L16.912 22.4229L13.776 22.4229L13.776 31.3989L16.912 31.3989L16.912 27.4789Z"/>
<path clip-path="url(#TextBounds_2)" d="M25.104 31.5109C27.776 31.5109 29.824 29.7669 29.824 26.9029C29.824 24.0549 27.792 22.3109 25.12 22.3109C22.448 22.3109 20.416 24.0549 20.416 26.9029C20.416 29.7669 22.432 31.5109 25.104 31.5109ZM25.104 28.7909C24.288 28.7909 23.616 28.1989 23.616 26.9029C23.616 25.6229 24.32 25.0309 25.12 25.0309C25.92 25.0309 26.64 25.6229 26.64 26.9029C26.64 28.1989 25.904 28.7909 25.104 28.7909Z"/>
<path clip-path="url(#TextBounds_2)" d="M34.416 22.3109C32.288 22.3109 30.592 24.0389 30.592 26.9029C30.592 29.7669 32.288 31.5109 34.416 31.5109C35.68 31.5109 36.592 30.9509 37.056 30.1509L37.056 31.3029C37.056 32.6949 36.336 33.0949 35.456 33.0949C34.656 33.0949 34.112 32.7589 33.984 32.1829L30.896 32.1829C31.12 34.4069 32.848 35.8149 35.648 35.8149C38.88 35.8149 40.192 33.7029 40.192 31.3029L40.192 22.4229L37.056 22.4229L37.056 23.6709C36.592 22.8709 35.68 22.3109 34.416 22.3109ZM37.056 26.9029C37.056 28.1189 36.304 28.7749 35.424 28.7749C34.528 28.7749 33.792 28.1029 33.792 26.9029C33.792 25.6869 34.528 25.0469 35.424 25.0469C36.304 25.0469 37.056 25.7029 37.056 26.9029Z"/>
<path clip-path="url(#TextBounds_2)" d="M45.12 27.4789C45.12 26.1029 45.84 25.6869 47.136 25.6869L48.016 25.6869L48.016 22.3429C46.816 22.3429 45.792 23.0309 45.12 24.0069L45.12 22.4229L41.984 22.4229L41.984 31.3989L45.12 31.3989L45.12 27.4789Z"/>
<path clip-path="url(#TextBounds_2)" d="M48.624 26.9029C48.624 29.7669 50.32 31.5109 52.448 31.5109C53.712 31.5109 54.624 30.9509 55.088 30.1509L55.088 31.3989L58.224 31.3989L58.224 22.4229L55.088 22.4229L55.088 23.6709C54.624 22.8709 53.728 22.3109 52.448 22.3109C50.32 22.3109 48.624 24.0389 48.624 26.9029ZM55.088 26.9029C55.088 28.1189 54.336 28.7749 53.456 28.7749C52.56 28.7749 51.824 28.1029 51.824 26.9029C51.824 25.6869 52.56 25.0469 53.456 25.0469C54.336 25.0469 55.088 25.7029 55.088 26.9029Z"/>
<path clip-path="url(#TextBounds_2)" d="M72.24 26.5829L72.24 31.3989L75.376 31.3989L75.376 26.1669C75.376 23.8149 74.016 22.3429 71.744 22.3429C70.416 22.3429 69.36 23.0789 68.752 23.9909C68.16 22.9509 67.104 22.3429 65.76 22.3429C64.544 22.3429 63.664 22.8869 63.152 23.6069L63.152 22.4229L60.016 22.4229L60.016 31.3989L63.152 31.3989L63.152 26.5829C63.152 25.6069 63.728 25.0629 64.656 25.0629C65.552 25.0629 66.128 25.6069 66.128 26.5829L66.128 31.3989L69.264 31.3989L69.264 26.5829C69.264 25.6069 69.84 25.0629 70.752 25.0629C71.648 25.0629 72.24 25.6069 72.24 26.5829Z"/>
</g>
</g>
</svg>
